<?xml version="1.0" standalone="no"?>
<!DOCTYPE svg PUBLIC "-//W3C//DTD SVG 20010904//EN"
 "http://www.w3.org/TR/2001/REC-SVG-20010904/DTD/svg10.dtd">
<svg version="1.0" xmlns="http://www.w3.org/2000/svg"
 width="640.000000pt" height="1280.000000pt" viewBox="0 0 640.000000 1280.000000"
 preserveAspectRatio="xMidYMid meet">
<metadata>
Created by potrace 1.15, written by Peter Selinger 2001-2017
</metadata>
<g transform="translate(0.000000,1280.000000) scale(0.100000,-0.100000)"
fill="#000000" stroke="none">
<path d="M1070 12535 l0 -265 78 0 c76 -1 77 -1 47 -17 -163 -86 -166 -283 -5
-364 30 -16 63 -31 73 -33 15 -5 17 -19 17 -114 l0 -109 31 -7 c44 -9 95 -67
114 -129 38 -126 28 -297 -22 -390 -26 -47 -75 -87 -107 -87 -14 0 -16 -16
-16 -120 l0 -120 40 0 40 0 0 -4380 0 -4380 -40 0 -40 0 0 -119 0 -118 31 -7
c44 -9 95 -67 114 -129 38 -126 28 -297 -22 -390 -26 -47 -75 -87 -107 -87
-14 0 -16 -15 -16 -110 0 -97 -2 -111 -18 -116 -9 -2 -42 -17 -72 -33 -161
-81 -158 -278 5 -364 30 -16 29 -16 -47 -17 l-78 0 0 -265 0 -265 2130 0 2130
0 0 265 0 265 -77 0 c-77 1 -78 1 -48 17 163 86 166 283 5 364 -30 16 -63 31
-72 33 -16 5 -18 19 -18 114 l0 110 -31 6 c-44 9 -95 67 -114 129 -38 126 -28
297 22 390 26 47 75 87 107 87 14 0 16 16 16 120 l0 120 -40 0 -40 0 0 4380 0
4380 40 0 40 0 0 119 0 119 -31 6 c-44 9 -95 67 -114 129 -38 126 -28 297 22
390 26 47 75 87 107 87 14 0 16 15 16 110 0 97 2 111 18 116 9 2 42 17 72 33
161 81 158 278 -5 364 -30 16 -29 16 48 17 l77 0 0 265 0 265 -2130 0 -2130 0
0 -265z m3945 -6135 l0 -4380 -1815 0 -1815 0 0 4380 0 4380 1815 0 1815 0 0
-4380z"/>
<path d="M1422 10638 c-17 -17 -17 -8459 0 -8476 15 -15 61 -15 76 0 17 17 17
8459 0 8476 -7 7 -24 12 -38 12 -14 0 -31 -5 -38 -12z"/>
<path d="M1646 10619 l-26 -31 0 -4188 0 -4188 26 -31 c21 -26 33 -31 69 -31
36 0 48 5 69 31 l26 31 0 4188 0 4188 -26 31 c-21 26 -33 31 -69 31 -36 0 -48
-5 -69 -31z"/>
<path d="M1994 10618 c-22 -21 -38 -48 -44 -73 -13 -54 -13 -8236 0 -8290 6
-25 22 -52 44 -72 30 -28 43 -33 83 -33 60 0 109 29 129 75 21 52 21 8298 0
8350 -20 46 -69 75 -129 75 -40 0 -53 -5 -83 -32z"/>
<path d="M2465 10631 c-40 -24 -71 -60 -84 -94 -15 -40 -15 -8234 0 -8274 13
-34 55 -80 91 -99 35 -18 121 -18 156 0 37 19 68 55 87 98 13 34 15 459 15
4138 0 3679 -2 4104 -15 4138 -19 43 -50 79 -87 98 -39 20 -127 18 -163 -5z"/>
<path d="M3105 10631 c-49 -23 -89 -64 -109 -113 -14 -34 -16 -451 -16 -4118
0 -3667 2 -4084 16 -4118 73 -176 335 -176 408 0 14 34 16 451 16 4120 0 3953
-1 4084 -19 4123 -50 108 -187 157 -296 106z"/>
<path d="M3765 10631 c-40 -24 -61 -49 -80 -94 -13 -32 -15 -469 -15 -4137 0
-3679 2 -4104 15 -4138 19 -43 50 -79 87 -98 35 -18 121 -18 156 0 36 19 78
65 91 99 8 20 11 1258 11 4137 0 2879 -3 4117 -11 4137 -13 34 -55 80 -91 99
-39 20 -127 18 -163 -5z"/>
<path d="M4242 10630 c-18 -11 -40 -36 -48 -55 -21 -52 -21 -8298 0 -8350 20
-46 69 -75 129 -75 40 0 53 5 83 33 22 20 38 47 44 72 13 54 13 8236 0 8290
-6 25 -22 52 -44 73 -30 27 -43 32 -83 32 -30 0 -60 -7 -81 -20z"/>
<path d="M4616 10619 l-26 -31 0 -4188 0 -4188 26 -31 c21 -26 33 -31 69 -31
36 0 48 5 69 31 l26 31 0 4188 0 4188 -26 31 c-21 26 -33 31 -69 31 -36 0 -48
-5 -69 -31z"/>
<path d="M4902 10638 c-17 -17 -17 -8459 0 -8476 15 -15 61 -15 76 0 17 17 17
8459 0 8476 -7 7 -24 12 -38 12 -14 0 -31 -5 -38 -12z"/>
</g>
</svg>
